# xmcd
#
# Track frame offsets:
#	150
#	16354
#	29262
#	43462
#	60124
#	84736
#	114680
#	116816
#	133041
#	141816
#	160939
#	166693
#	181256
#	217753
#	219683
#	225754
#	245874
#	273931
#	296012
#	310186
#
# Disc length: 4792 seconds
#
# Revision: 0
# Processed by: cddbd v1.5.2PL0 Copyright (c) Steve Scherf et al.
# Submitted via: audiograbber 1.83.01
#
DISCID=1c12b614
DTITLE=Chuck Berry - Rock And Roll Music - Any Old Way You Choose It [CD 13) - 
DTITLE=On Stage 1963
DYEAR=2014
DGENRE=Rock and Roll
TTITLE0=Rock At The Philharmonic [instrumental] [live - Walled Lake Casino, Det
TTITLE0=roit October 25, 1963]
TTITLE1=Memphis [live - Walled Lake Casino, Detroit October 25, 1963]
TTITLE2=Guitar Boogie [instrumental] [live - Walled Lake Casino, Detroit Octobe
TTITLE2=r 25, 1963]
TTITLE3=Let It Rock [live - Walled Lake Casino, Detroit October 25, 1963]
TTITLE4=Wee Wee Hours [live - Walled Lake Casino, Detroit October 25, 1963]
TTITLE5=Medley: Goodnight Sweetheart/Johnny B. Goode/Let It Rock/Rock and Roll Mu
TTITLE5=sic [live - Walled Lake Casino, Detroit October 25, 1963]
TTITLE6=Introduction First Set [live - Walled Lake Casino, Detroit October 26, 
TTITLE6=1963] [2009]
TTITLE7=Guitar Boogie [instrumental] [live - Walled Lake Casino, Detroit Octobe
TTITLE7=r 26, 1963] [2009]
TTITLE8=Let It Rock [live - Walled Lake Casino, Detroit October 26, 1963] [2009
TTITLE8=]
TTITLE9=Almost Grown [live - Walled Lake Casino, Detroit October 26, 1963] [200
TTITLE9=9]
TTITLE10=Chuck Berry Dialogue #1 [live - Walled Lake Casino, Detroit October 26
TTITLE10=, 1963] [2009]
TTITLE11=Memphis [live - Walled Lake Casino, Detroit October 26, 1963] [2009]
TTITLE12=Johnny B. Goode [live - Walled Lake Casino, Detroit October 26, 1963] 
TTITLE12=[2009]
TTITLE13=Introduction Set Two [live - Walled Lake Casino, Detroit October 26, 1
TTITLE13=963] [2009]
TTITLE14=Instrumental Boogie [live - Walled Lake Casino, Detroit October 26, 19
TTITLE14=63] [2009]
TTITLE15=Sweet Little Sixteen [live - Walled Lake Casino, Detroit October 26, 1
TTITLE15=963] [2009]
TTITLE16=Wee Wee Hours [live - Walled Lake Casino, Detroit October 26, 1963] [2
TTITLE16=009]
TTITLE17=Chuck Berry Dialogue #2 [live - Walled Lake Casino, Detroit October 26
TTITLE17=, 1963] [2009]
TTITLE18=Maybellene [live - Walled Lake Casino, Detroit October 26, 1963] [2009
TTITLE18=]
TTITLE19=Medley: Goodnight Sweetheart/Johnny B. Goode/Let It Rock/School Day [l
TTITLE19=ive - Walled Lake Casino, Detroit October 26, 1963] [2009]
EXTD=
EXTT0=
EXTT1=
EXTT2=
EXTT3=
EXTT4=
EXTT5=
EXTT6=
EXTT7=
EXTT8=
EXTT9=
EXTT10=
EXTT11=
EXTT12=
EXTT13=
EXTT14=
EXTT15=
EXTT16=
EXTT17=
EXTT18=
EXTT19=
PLAYORDER=
